<mxfile host="app.diagrams.net" modified="2023-03-08T10:09:27.125Z" agent="5.0 (Windows NT 10.0; Win64; x64) AppleWebKit/537.36 (KHTML, like Gecko) Chrome/110.0.0.0 Safari/537.36 OPR/96.0.0.0" etag="mF-1egpZ6X5emiNWFFRw" version="21.0.2" type="github">
  <diagram id="C5RBs43oDa-KdzZeNtuy" name="Page-1">
    <mxGraphModel dx="1394" dy="797" grid="1" gridSize="10" guides="1" tooltips="1" connect="1" arrows="1" fold="1" page="1" pageScale="1" pageWidth="827" pageHeight="1169" background="#ffffff" math="0" shadow="0">
      <root>
        <mxCell id="WIyWlLk6GJQsqaUBKTNV-0" />
        <mxCell id="WIyWlLk6GJQsqaUBKTNV-1" parent="WIyWlLk6GJQsqaUBKTNV-0" />
        <mxCell id="4G4TENoFVCoQZXmD5Dqa-3" style="edgeStyle=orthogonalEdgeStyle;rounded=0;orthogonalLoop=1;jettySize=auto;html=1;exitX=0.5;exitY=1;exitDx=0;exitDy=0;entryX=0.5;entryY=0;entryDx=0;entryDy=0;" edge="1" parent="WIyWlLk6GJQsqaUBKTNV-1" source="4G4TENoFVCoQZXmD5Dqa-0">
          <mxGeometry relative="1" as="geometry">
            <mxPoint x="420" y="160" as="targetPoint" />
          </mxGeometry>
        </mxCell>
        <mxCell id="4G4TENoFVCoQZXmD5Dqa-0" value="Start" style="ellipse;whiteSpace=wrap;html=1;" vertex="1" parent="WIyWlLk6GJQsqaUBKTNV-1">
          <mxGeometry x="360" y="40" width="120" height="80" as="geometry" />
        </mxCell>
        <mxCell id="4G4TENoFVCoQZXmD5Dqa-20" value="" style="edgeStyle=orthogonalEdgeStyle;rounded=0;orthogonalLoop=1;jettySize=auto;html=1;" edge="1" parent="WIyWlLk6GJQsqaUBKTNV-1">
          <mxGeometry relative="1" as="geometry">
            <mxPoint x="420" y="240" as="sourcePoint" />
            <mxPoint x="420" y="280" as="targetPoint" />
          </mxGeometry>
        </mxCell>
        <mxCell id="4G4TENoFVCoQZXmD5Dqa-22" value="" style="edgeStyle=orthogonalEdgeStyle;rounded=0;orthogonalLoop=1;jettySize=auto;html=1;" edge="1" parent="WIyWlLk6GJQsqaUBKTNV-1" source="4G4TENoFVCoQZXmD5Dqa-19" target="4G4TENoFVCoQZXmD5Dqa-21">
          <mxGeometry relative="1" as="geometry" />
        </mxCell>
        <mxCell id="4G4TENoFVCoQZXmD5Dqa-24" value="" style="edgeStyle=orthogonalEdgeStyle;rounded=0;orthogonalLoop=1;jettySize=auto;html=1;" edge="1" parent="WIyWlLk6GJQsqaUBKTNV-1" source="4G4TENoFVCoQZXmD5Dqa-19" target="4G4TENoFVCoQZXmD5Dqa-23">
          <mxGeometry relative="1" as="geometry" />
        </mxCell>
        <mxCell id="4G4TENoFVCoQZXmD5Dqa-19" value="" style="rhombus;whiteSpace=wrap;html=1;rounded=0;" vertex="1" parent="WIyWlLk6GJQsqaUBKTNV-1">
          <mxGeometry x="380" y="400" width="80" height="80" as="geometry" />
        </mxCell>
        <mxCell id="4G4TENoFVCoQZXmD5Dqa-29" style="edgeStyle=orthogonalEdgeStyle;rounded=0;orthogonalLoop=1;jettySize=auto;html=1;exitX=0.5;exitY=1;exitDx=0;exitDy=0;entryX=0;entryY=0.5;entryDx=0;entryDy=0;" edge="1" parent="WIyWlLk6GJQsqaUBKTNV-1" source="4G4TENoFVCoQZXmD5Dqa-21" target="4G4TENoFVCoQZXmD5Dqa-27">
          <mxGeometry relative="1" as="geometry" />
        </mxCell>
        <mxCell id="4G4TENoFVCoQZXmD5Dqa-21" value="" style="rounded=0;whiteSpace=wrap;html=1;" vertex="1" parent="WIyWlLk6GJQsqaUBKTNV-1">
          <mxGeometry x="200" y="400" width="120" height="80" as="geometry" />
        </mxCell>
        <mxCell id="4G4TENoFVCoQZXmD5Dqa-28" style="edgeStyle=orthogonalEdgeStyle;rounded=0;orthogonalLoop=1;jettySize=auto;html=1;exitX=0.5;exitY=1;exitDx=0;exitDy=0;entryX=1;entryY=0.5;entryDx=0;entryDy=0;" edge="1" parent="WIyWlLk6GJQsqaUBKTNV-1" source="4G4TENoFVCoQZXmD5Dqa-23" target="4G4TENoFVCoQZXmD5Dqa-27">
          <mxGeometry relative="1" as="geometry" />
        </mxCell>
        <mxCell id="4G4TENoFVCoQZXmD5Dqa-23" value="" style="rounded=0;whiteSpace=wrap;html=1;" vertex="1" parent="WIyWlLk6GJQsqaUBKTNV-1">
          <mxGeometry x="520" y="400" width="120" height="80" as="geometry" />
        </mxCell>
        <mxCell id="4G4TENoFVCoQZXmD5Dqa-25" value="Tak" style="text;html=1;strokeColor=none;fillColor=none;align=center;verticalAlign=middle;whiteSpace=wrap;rounded=0;" vertex="1" parent="WIyWlLk6GJQsqaUBKTNV-1">
          <mxGeometry x="320" y="410" width="60" height="30" as="geometry" />
        </mxCell>
        <mxCell id="4G4TENoFVCoQZXmD5Dqa-26" value="Nie" style="text;html=1;strokeColor=none;fillColor=none;align=center;verticalAlign=middle;whiteSpace=wrap;rounded=0;" vertex="1" parent="WIyWlLk6GJQsqaUBKTNV-1">
          <mxGeometry x="460" y="410" width="60" height="30" as="geometry" />
        </mxCell>
        <mxCell id="4G4TENoFVCoQZXmD5Dqa-27" value="Stop" style="ellipse;whiteSpace=wrap;html=1;" vertex="1" parent="WIyWlLk6GJQsqaUBKTNV-1">
          <mxGeometry x="360" y="520" width="120" height="80" as="geometry" />
        </mxCell>
        <mxCell id="4G4TENoFVCoQZXmD5Dqa-30" value="Podaj datÄ™ urodzin" style="rounded=0;whiteSpace=wrap;html=1;" vertex="1" parent="WIyWlLk6GJQsqaUBKTNV-1">
          <mxGeometry x="360" y="160" width="120" height="80" as="geometry" />
        </mxCell>
        <mxCell id="4G4TENoFVCoQZXmD5Dqa-34" style="edgeStyle=orthogonalEdgeStyle;rounded=0;orthogonalLoop=1;jettySize=auto;html=1;exitX=0.5;exitY=1;exitDx=0;exitDy=0;entryX=0.5;entryY=0;entryDx=0;entryDy=0;" edge="1" parent="WIyWlLk6GJQsqaUBKTNV-1" source="4G4TENoFVCoQZXmD5Dqa-33" target="4G4TENoFVCoQZXmD5Dqa-19">
          <mxGeometry relative="1" as="geometry" />
        </mxCell>
        <mxCell id="4G4TENoFVCoQZXmD5Dqa-33" value="" style="rounded=0;whiteSpace=wrap;html=1;" vertex="1" parent="WIyWlLk6GJQsqaUBKTNV-1">
          <mxGeometry x="360" y="280" width="120" height="80" as="geometry" />
        </mxCell>
      </root>
    </mxGraphModel>
  </diagram>
</mxfile>
